<svg xmlns="http://www.w3.org/2000/svg" viewBox="0 0 64 64"><ellipse cx="32" cy="57.5" rx="13" ry="3.2" fill="none" stroke="#f97316" stroke-width="2.4" opacity=".5"/><path d="M32 54.5S14 38.3 14 25.5a18 18 0 0 1 36 0C50 38.3 32 54.5 32 54.5z" fill="#f97316"/><circle cx="32" cy="25.5" r="11.8" fill="#fff"/><rect x="30.9" y="16.5" width="2.2" height="17.5" rx="1.1" fill="#f97316"/><path d="M25 18.6h10.2l3.1 2.6-3.1 2.6H25a.9.9 0 0 1-.9-.9v-3.4a.9.9 0 0 1 .9-.9zM39 25.8H28.8l-3.1 2.6 3.1 2.6H39a.9.9 0 0 0 .9-.9v-3.4a.9.9 0 0 0-.9-.9z" fill="#f97316"/></svg>
